<?xml version="1.0" standalone="no"?>
<!DOCTYPE svg PUBLIC "-//W3C//DTD SVG 20010904//EN"
 "http://www.w3.org/TR/2001/REC-SVG-20010904/DTD/svg10.dtd">
<svg version="1.0" xmlns="http://www.w3.org/2000/svg"
 width="260.000000pt" height="260.000000pt" viewBox="0 0 260.000000 260.000000"
 preserveAspectRatio="xMidYMid meet">
<metadata>
Created by potrace 1.11, written by Peter Selinger 2001-2013
</metadata>
<g transform="translate(0.000000,260.000000) scale(0.100000,-0.100000)"
fill="#000000" stroke="none">
<path d="M1498 2098 c-3 -135 -4 -143 -23 -144 -27 -2 -144 -15 -175 -19 -14
-2 -56 -7 -95 -10 -38 -4 -81 -8 -95 -10 -14 -1 -58 -6 -98 -10 -41 -3 -81 -8
-90 -10 -9 -1 -53 -6 -96 -10 -43 -4 -87 -8 -97 -10 -10 -2 -49 -6 -86 -10
-37 -3 -87 -8 -110 -10 -96 -11 -131 -15 -183 -20 -30 -3 -71 -8 -90 -10 -19
-2 -66 -7 -105 -11 -38 -4 -81 -8 -95 -9 -14 -2 -33 -3 -42 -4 -12 -1 -16 -7
-12 -23 2 -13 6 -36 8 -53 3 -16 14 -64 25 -105 12 -41 23 -83 26 -93 28 -112
136 -332 220 -446 36 -49 211 -215 265 -251 36 -24 65 -42 65 -40 0 3 14 -5
31 -17 57 -41 251 -116 354 -137 86 -18 162 -30 192 -30 21 -1 38 -3 38 -6 0
-13 339 0 425 16 l35 6 0 -138 1 -139 20 25 c11 13 34 40 49 60 16 19 77 94
136 165 58 72 133 164 167 205 118 146 142 175 147 180 3 3 32 39 65 80 33 41
62 77 65 80 5 4 159 195 194 239 8 10 4 18 -14 33 -24 20 -95 78 -130 108 -10
8 -85 69 -166 135 -81 66 -177 145 -213 175 -154 130 -501 410 -508 410 -1 0
-4 -64 -5 -142z"/>
</g>
</svg>
